<svg width="32" height="32" viewBox="0 0 32 32" fill="none" xmlns="http://www.w3.org/2000/svg">
<g clip-path="url(#clip0_330_2225)">
<path d="M16 32C24.8366 32 32 24.8366 32 16C32 7.16344 24.8366 0 16 0C7.16344 0 0 7.16344 0 16C0 24.8366 7.16344 32 16 32Z" fill="#075F4A"/>
<path d="M16.0042 18.3086C16.7583 18.1611 19.2565 17.5798 21.1901 15.2754C23.5198 12.5034 23.3049 9.30595 23.2501 8.66983C22.5087 8.87204 19.2312 9.8494 17.3017 13.1438C16.0463 15.2838 15.9747 17.3565 16 18.3086H16.0042Z" fill="#F8F8F8"/>
<path d="M15.9958 18.3086C15.2417 18.1611 12.7436 17.5798 10.8099 15.2754C8.48026 12.5034 8.69511 9.30595 8.74987 8.66983C9.49131 8.87204 12.7688 9.8494 14.6983 13.1438C15.9537 15.2838 16.0253 17.3565 16 18.3086H15.9958Z" fill="#F8F8F8"/>
<path d="M17.2006 15.9368C17.2006 15.2737 16.6631 14.7362 16 14.7362C15.3369 14.7362 14.7994 15.2737 14.7994 15.9368V22.812C14.7994 23.4751 15.3369 24.0126 16 24.0126C16.6631 24.0126 17.2006 23.4751 17.2006 22.812V15.9368Z" fill="#F8F8F8"/>
</g>
<defs>
<clipPath id="clip0_330_2225">
<rect width="32" height="32" fill="white"/>
</clipPath>
</defs>
</svg>
