<svg width="34" height="34" viewBox="0 0 34 34" fill="none" xmlns="http://www.w3.org/2000/svg">
<path fill-rule="evenodd" clip-rule="evenodd" d="M17 32.5833C8.39352 32.5833 1.41663 25.6064 1.41663 17C1.41663 8.39352 8.39352 1.41663 17 1.41663C25.6064 1.41663 32.5833 8.39352 32.5833 17C32.5833 25.6064 25.6064 32.5833 17 32.5833ZM27.4826 24.2599C28.9122 22.1996 29.75 19.6976 29.75 17C29.75 9.95833 24.0416 4.24996 17 4.24996C9.95833 4.24996 4.24996 9.95833 4.24996 17C4.24996 19.6976 5.08775 22.1996 6.51734 24.2599C8.11173 22.1539 11.8583 21.25 17 21.25C22.1416 21.25 25.8882 22.1539 27.4826 24.2599ZM25.4499 26.548C25.0353 25.057 22.0566 24.0833 17 24.0833C11.9433 24.0833 8.96463 25.057 8.54999 26.548C10.7996 28.5404 13.7585 29.75 17 29.75C20.2414 29.75 23.2003 28.5404 25.4499 26.548ZM17 8.49996C13.5704 8.49996 11.3333 10.9873 11.3333 14.1666C11.3333 19.0221 13.8279 21.25 17 21.25C20.1422 21.25 22.6666 19.0961 22.6666 14.45C22.6666 11.2222 20.4201 8.49996 17 8.49996ZM14.1666 14.1666C14.1666 17.3814 15.3258 18.4166 17 18.4166C18.6684 18.4166 19.8333 17.4227 19.8333 14.45C19.8333 12.6797 18.7221 11.3333 17 11.3333C15.2061 11.3333 14.1666 12.489 14.1666 14.1666Z" fill="#F8F8F8"/>
</svg>
