<svg width="23" height="23" viewBox="0 0 23 23" fill="none" xmlns="http://www.w3.org/2000/svg">
<path d="M12.1656 16.0877C12.1656 18.0958 12.1656 19.7002 12.1656 21.3152C12.1656 21.7615 12.0169 22.1227 11.5812 22.314C11.1775 22.4946 10.8056 22.4096 10.4869 22.1227C10.1788 21.8465 10.1681 21.464 10.1681 21.0815C10.1681 19.4133 10.1469 17.7558 10.1787 16.0877C10.1894 15.5458 10.0194 15.3865 9.48812 15.3652C4.01625 15.1315 0 10.9133 0 5.43083C0 5.05896 0 4.68708 0 4.30458C0.010625 3.35896 0.435625 2.87021 1.39187 2.82771C3.145 2.75333 4.86625 2.95521 6.47062 3.72021C9.69 5.25021 11.5706 7.82146 12.0806 11.3171C12.3356 13.0277 12.1337 14.7596 12.1656 16.0877ZM10.1362 12.3371C10.1575 11.8483 10.0619 11.3171 9.93437 10.7858C9.15875 7.43896 6.01375 4.91021 2.58187 4.87833C2.14625 4.87833 1.98687 4.99521 1.9975 5.44146C2.00812 6.05771 2.07187 6.67396 2.21 7.26896C3.0175 10.6902 5.71625 13.0171 9.21188 13.3252C10.2 13.4208 10.2 13.4208 10.1362 12.3371Z" fill="#666666"/>
<path d="M13.9718 11.0409C13.823 10.3927 13.6743 9.7765 13.5255 9.10712C15.9905 8.714 17.9455 7.524 19.2418 5.36712C19.8368 4.38962 20.2193 3.32712 20.2512 2.169C17.6374 1.56337 14.6305 3.49712 12.6649 7.02462C12.2399 6.42962 11.8255 5.84525 11.4218 5.26087C11.3049 5.09087 11.4324 4.9315 11.5174 4.79337C13.228 2.084 15.6505 0.49025 18.8487 0.0971248C19.5605 0.0121248 20.2618 -0.0197505 20.9737 0.0121245C21.7918 0.0439995 22.3443 0.553999 22.3549 1.34025C22.3762 6.21712 18.8912 10.2228 14.3118 11.009C14.2268 11.0196 14.1312 11.0302 13.9718 11.0409Z" fill="#666666"/>
</svg>
