<svg width="34" height="34" viewBox="0 0 34 34" fill="none" xmlns="http://www.w3.org/2000/svg">
<path fill-rule="evenodd" clip-rule="evenodd" d="M32.5833 17.0001C32.5833 25.6065 25.6064 32.5834 17 32.5834C8.39352 32.5834 1.41663 25.6065 1.41663 17.0001C1.41663 8.39364 8.39352 1.41675 17 1.41675C25.6064 1.41675 32.5833 8.39364 32.5833 17.0001ZM4.24996 17.0001C4.24996 24.0417 9.95833 29.7501 17 29.7501C24.0416 29.7501 29.75 24.0417 29.75 17.0001C29.75 9.95845 24.0416 4.25008 17 4.25008C9.95833 4.25008 4.24996 9.95845 4.24996 17.0001ZM11.3333 9.91675C11.3333 8.80405 12.5572 8.12569 13.5008 8.71542L24.8341 15.7987C25.7219 16.3536 25.7219 17.6465 24.8341 18.2014L13.5008 25.2847C12.5572 25.8745 11.3333 25.1961 11.3333 24.0834V9.91675ZM14.1666 12.4728L21.4103 17.0001L14.1666 21.5274V12.4728Z" fill="#F8F8F8"/>
</svg>
