<svg width="70" height="70" viewBox="0 0 70 70" fill="none" xmlns="http://www.w3.org/2000/svg">
<g clip-path="url(#clip0_299_2070)">
<path d="M35 70C54.33 70 70 54.33 70 35C70 15.67 54.33 0 35 0C15.67 0 0 15.67 0 35C0 54.33 15.67 70 35 70Z" fill="#F8F8F8"/>
<path d="M35.0092 40.0501C36.6588 39.7276 42.1235 38.4559 46.3533 33.415C51.4494 27.3513 50.9795 20.3569 50.8597 18.9653C49.2378 19.4077 42.0682 21.5456 37.8475 28.7521C35.1014 33.4335 34.9447 37.9674 35 40.0501H35.0092Z" fill="#075F4A"/>
<path d="M34.9908 40.0501C33.3412 39.7276 27.8765 38.4559 23.6467 33.415C18.5506 27.3513 19.0205 20.3569 19.1403 18.9653C20.7623 19.4077 27.9318 21.5456 32.1525 28.7521C34.8986 33.4335 35.0553 37.9674 35 40.0501H34.9908Z" fill="#075F4A"/>
<path d="M37.6264 34.8617C37.6264 33.4112 36.4505 32.2354 35 32.2354C33.5495 32.2354 32.3736 33.4112 32.3736 34.8617V49.9012C32.3736 51.3517 33.5495 52.5276 35 52.5276C36.4505 52.5276 37.6264 51.3517 37.6264 49.9012V34.8617Z" fill="#075F4A"/>
</g>
<defs>
<clipPath id="clip0_299_2070">
<rect width="70" height="70" fill="white"/>
</clipPath>
</defs>
</svg>
