<svg width="40" height="36" viewBox="0 0 40 36" fill="none" xmlns="http://www.w3.org/2000/svg">
<path d="M22.9875 23.9375C22.9875 26.3 22.9875 28.1875 22.9875 30.0875C22.9875 30.6125 22.8125 31.0375 22.3 31.2625C21.825 31.475 21.3875 31.375 21.0125 31.0375C20.65 30.7125 20.6375 30.2625 20.6375 29.8125C20.6375 27.85 20.6125 25.9 20.65 23.9375C20.6625 23.3 20.4625 23.1125 19.8375 23.0875C13.4 22.8125 8.67505 17.85 8.67505 11.4C8.67505 10.9625 8.67505 10.525 8.67505 10.075C8.68755 8.96248 9.18755 8.38748 10.3125 8.33748C12.375 8.24998 14.4 8.48748 16.2875 9.38748C20.075 11.1875 22.2875 14.2125 22.8875 18.325C23.1875 20.3375 22.95 22.375 22.9875 23.9375ZM20.6 19.525C20.625 18.95 20.5125 18.325 20.3625 17.7C19.45 13.7625 15.75 10.7875 11.7125 10.75C11.2 10.75 11.0125 10.8875 11.025 11.4125C11.0375 12.1375 11.1125 12.8625 11.275 13.5625C12.225 17.5875 15.4 20.325 19.5125 20.6875C20.675 20.8 20.675 20.8 20.6 19.525Z" fill="#F8F8F8"/>
<path d="M25.1125 18C24.9375 17.2375 24.7625 16.5125 24.5875 15.725C27.4875 15.2625 29.7875 13.8625 31.3125 11.325C32.0125 10.175 32.4625 8.92501 32.5 7.56251C29.425 6.85001 25.8875 9.12501 23.575 13.275C23.075 12.575 22.5875 11.8875 22.1125 11.2C21.975 11 22.125 10.8125 22.225 10.65C24.2375 7.46251 27.0875 5.58751 30.85 5.12501C31.6875 5.02501 32.5125 4.98751 33.35 5.02501C34.3125 5.06251 34.9625 5.66251 34.975 6.58751C35 12.325 30.9 17.0375 25.5125 17.9625C25.4125 17.975 25.3 17.9875 25.1125 18Z" fill="#F8F8F8"/>
</svg>
