<svg width="240" height="154" viewBox="0 0 240 154" fill="none" xmlns="http://www.w3.org/2000/svg">
<path d="M2.44 136V108H14.48C16.3467 108 18.0533 108.427 19.6 109.28C21.1733 110.133 22.4267 111.32 23.36 112.84C24.2933 114.333 24.76 116.067 24.76 118.04C24.76 120.013 24.2933 121.773 23.36 123.32C22.4267 124.84 21.1867 126.027 19.64 126.88C18.0933 127.733 16.3733 128.16 14.48 128.16H9.16V136H2.44ZM9.16 122.52H13.72C14.52 122.52 15.24 122.347 15.88 122C16.52 121.653 17.04 121.147 17.44 120.48C17.84 119.813 18.04 119.013 18.04 118.08C18.04 117.147 17.84 116.347 17.44 115.68C17.04 115.013 16.5067 114.507 15.84 114.16C15.2 113.787 14.4933 113.6 13.72 113.6H9.16V122.52ZM28.0622 136V106.8H34.2622V136H28.0622ZM47.0834 136.48C45.2701 136.48 43.6701 136.013 42.2834 135.08C40.8968 134.147 39.8168 132.893 39.0434 131.32C38.2701 129.72 37.8834 127.92 37.8834 125.92C37.8834 123.84 38.3368 121.987 39.2434 120.36C40.1501 118.707 41.4301 117.4 43.0834 116.44C44.7634 115.48 46.7368 115 49.0034 115C51.2968 115 53.2434 115.48 54.8434 116.44C56.4701 117.373 57.7101 118.667 58.5634 120.32C59.4434 121.947 59.8834 123.773 59.8834 125.8V136H53.8034V132.72H53.6434C53.2701 133.44 52.7901 134.093 52.2034 134.68C51.6168 135.24 50.8968 135.68 50.0434 136C49.2168 136.32 48.2301 136.48 47.0834 136.48ZM48.9234 131.12C49.8568 131.12 50.6701 130.893 51.3634 130.44C52.0834 129.96 52.6301 129.307 53.0034 128.48C53.3768 127.653 53.5634 126.733 53.5634 125.72C53.5634 124.733 53.3768 123.84 53.0034 123.04C52.6301 122.24 52.0834 121.613 51.3634 121.16C50.6701 120.68 49.8568 120.44 48.9234 120.44C47.9634 120.44 47.1234 120.68 46.4034 121.16C45.6834 121.613 45.1368 122.24 44.7634 123.04C44.3901 123.84 44.2034 124.733 44.2034 125.72C44.2034 126.733 44.3901 127.653 44.7634 128.48C45.1368 129.307 45.6834 129.96 46.4034 130.44C47.1234 130.893 47.9634 131.12 48.9234 131.12ZM64.4684 136V124.2C64.4684 122.493 64.8818 120.947 65.7084 119.56C66.5351 118.173 67.7084 117.067 69.2284 116.24C70.7751 115.413 72.6018 115 74.7084 115C76.8418 115 78.6551 115.413 80.1484 116.24C81.6684 117.067 82.8284 118.173 83.6284 119.56C84.4284 120.947 84.8284 122.493 84.8284 124.2V136H78.6284V124.36C78.6284 123.64 78.4551 122.987 78.1084 122.4C77.7618 121.787 77.2818 121.307 76.6684 120.96C76.0818 120.587 75.4151 120.4 74.6684 120.4C73.8951 120.4 73.2018 120.587 72.5884 120.96C72.0018 121.307 71.5351 121.787 71.1884 122.4C70.8418 122.987 70.6684 123.64 70.6684 124.36V136H64.4684ZM96.9884 136C95.0951 136 93.6151 135.467 92.5484 134.4C91.4818 133.307 90.9484 131.84 90.9484 130V110.48H97.1884V129.64C97.1884 129.96 97.2951 130.24 97.5084 130.48C97.7484 130.693 98.0284 130.8 98.3484 130.8H102.828V136H96.9884ZM87.5884 120.56V115.48H102.828V120.56H87.5884ZM139.22 144.64C137.913 144.64 136.753 144.36 135.74 143.8C134.753 143.267 133.98 142.547 133.42 141.64C132.86 140.733 132.58 139.733 132.58 138.64C132.58 137.787 132.767 136.987 133.14 136.24C133.54 135.493 134.047 134.853 134.66 134.32C135.3 133.76 135.98 133.36 136.7 133.12C136.62 133.04 136.553 132.987 136.5 132.96C136.473 132.907 136.433 132.867 136.38 132.84L134.7 131.44C133.953 132.507 133.047 133.427 131.98 134.2C130.94 134.947 129.78 135.52 128.5 135.92C127.22 136.293 125.847 136.48 124.38 136.48C122.14 136.48 120.207 136.08 118.58 135.28C116.98 134.48 115.74 133.373 114.86 131.96C113.98 130.52 113.54 128.867 113.54 127C113.54 125.747 113.767 124.573 114.22 123.48C114.673 122.36 115.313 121.373 116.14 120.52C116.993 119.64 117.98 118.907 119.1 118.32C118.727 117.947 118.393 117.533 118.1 117.08C117.833 116.627 117.62 116.133 117.46 115.6C117.327 115.067 117.26 114.52 117.26 113.96C117.26 112.76 117.567 111.68 118.18 110.72C118.82 109.733 119.673 108.947 120.74 108.36C121.807 107.773 122.993 107.48 124.3 107.48C125.687 107.48 126.9 107.733 127.94 108.24C128.98 108.747 129.807 109.48 130.42 110.44C131.033 111.4 131.34 112.52 131.34 113.8C131.34 114.92 131.047 115.947 130.46 116.88C129.873 117.813 129.033 118.587 127.94 119.2L132.98 123.28L133.06 123.08C133.54 121.88 134.033 120.853 134.54 120C135.047 119.12 135.593 118.413 136.18 117.88C136.767 117.32 137.473 116.907 138.3 116.64C139.127 116.373 140.113 116.24 141.26 116.24H144.22V120.84H141.94C141.247 120.84 140.673 120.933 140.22 121.12C139.793 121.307 139.407 121.613 139.06 122.04C138.74 122.467 138.433 123.027 138.14 123.72C137.847 124.387 137.5 125.24 137.1 126.28L136.98 126.56L137.22 126.72C139.327 128.32 141.02 129.773 142.3 131.08C143.58 132.36 144.5 133.587 145.06 134.76C145.647 135.907 145.94 137.093 145.94 138.32C145.94 139.52 145.647 140.6 145.06 141.56C144.5 142.52 143.713 143.267 142.7 143.8C141.687 144.36 140.527 144.64 139.22 144.64ZM124.9 131.12C125.647 131.12 126.367 131.013 127.06 130.8C127.753 130.587 128.393 130.253 128.98 129.8C129.567 129.347 130.087 128.76 130.54 128.04L122.66 121.6C122.153 121.867 121.673 122.213 121.22 122.64C120.767 123.04 120.393 123.533 120.1 124.12C119.833 124.68 119.7 125.36 119.7 126.16C119.7 127.067 119.913 127.907 120.34 128.68C120.793 129.427 121.407 130.027 122.18 130.48C122.98 130.907 123.887 131.12 124.9 131.12ZM139.18 140.4C139.633 140.4 140.007 140.227 140.3 139.88C140.62 139.533 140.78 139.067 140.78 138.48C140.78 138.133 140.7 137.773 140.54 137.4C140.407 137.027 140.193 136.693 139.9 136.4C139.42 136.48 139.007 136.627 138.66 136.84C138.313 137.08 138.033 137.36 137.82 137.68C137.633 138 137.54 138.36 137.54 138.76C137.54 139.24 137.7 139.627 138.02 139.92C138.34 140.24 138.727 140.4 139.18 140.4ZM124.38 116.36C124.727 116.147 125.007 115.907 125.22 115.64C125.46 115.347 125.633 115.053 125.74 114.76C125.847 114.44 125.9 114.147 125.9 113.88C125.9 113.4 125.753 112.987 125.46 112.64C125.167 112.293 124.767 112.12 124.26 112.12C123.913 112.12 123.62 112.2 123.38 112.36C123.14 112.52 122.953 112.733 122.82 113C122.687 113.24 122.607 113.52 122.58 113.84C122.58 114.213 122.66 114.547 122.82 114.84C123.007 115.107 123.233 115.373 123.5 115.64C123.793 115.88 124.087 116.12 124.38 116.36ZM156.737 136V108H168.777C170.644 108 172.35 108.427 173.897 109.28C175.47 110.133 176.724 111.32 177.657 112.84C178.59 114.333 179.057 116.067 179.057 118.04C179.057 120.013 178.59 121.773 177.657 123.32C176.724 124.84 175.484 126.027 173.937 126.88C172.39 127.733 170.67 128.16 168.777 128.16H163.457V136H156.737ZM163.457 122.52H168.017C168.817 122.52 169.537 122.347 170.177 122C170.817 121.653 171.337 121.147 171.737 120.48C172.137 119.813 172.337 119.013 172.337 118.08C172.337 117.147 172.137 116.347 171.737 115.68C171.337 115.013 170.804 114.507 170.137 114.16C169.497 113.787 168.79 113.6 168.017 113.6H163.457V122.52ZM182.359 136V106.8H188.559V136H182.359ZM203.38 136.48C201.274 136.48 199.447 136.08 197.9 135.28C196.38 134.453 195.207 133.347 194.38 131.96C193.554 130.547 193.14 128.987 193.14 127.28V115.48H199.34V127.12C199.34 127.84 199.514 128.507 199.86 129.12C200.207 129.707 200.674 130.187 201.26 130.56C201.874 130.907 202.567 131.08 203.34 131.08C204.087 131.08 204.754 130.907 205.34 130.56C205.954 130.187 206.434 129.707 206.78 129.12C207.127 128.507 207.3 127.84 207.3 127.12V115.48H213.5V127.28C213.5 128.987 213.1 130.547 212.3 131.96C211.5 133.347 210.34 134.453 208.82 135.28C207.327 136.08 205.514 136.48 203.38 136.48ZM218.14 136V106.8H224.34V123.24H227.06L231.74 115.48H238.66L233.14 124.04C234.74 124.707 235.98 125.733 236.86 127.12C237.767 128.48 238.22 130.08 238.22 131.92V136H231.98V131.92C231.98 131.173 231.794 130.507 231.42 129.92C231.074 129.307 230.607 128.827 230.02 128.48C229.434 128.133 228.767 127.96 228.02 127.96H224.34V136H218.14Z" fill="#171717"/>
<g clip-path="url(#clip0_310_4430)">
<path d="M120 70C139.33 70 155 54.33 155 35C155 15.67 139.33 0 120 0C100.67 0 85 15.67 85 35C85 54.33 100.67 70 120 70Z" fill="#075F4A"/>
<path d="M120.009 40.0501C121.659 39.7276 127.123 38.4559 131.353 33.415C136.449 27.3513 135.979 20.3569 135.86 18.9653C134.238 19.4077 127.068 21.5456 122.848 28.7521C120.101 33.4335 119.945 37.9674 120 40.0501H120.009Z" fill="#F8F8F8"/>
<path d="M119.991 40.0501C118.341 39.7276 112.877 38.4559 108.647 33.415C103.551 27.3513 104.021 20.3569 104.14 18.9653C105.762 19.4077 112.932 21.5456 117.152 28.7521C119.899 33.4335 120.055 37.9674 120 40.0501H119.991Z" fill="#F8F8F8"/>
<path d="M122.626 34.8617C122.626 33.4112 121.451 32.2354 120 32.2354C118.549 32.2354 117.374 33.4112 117.374 34.8617V49.9012C117.374 51.3517 118.549 52.5276 120 52.5276C121.451 52.5276 122.626 51.3517 122.626 49.9012V34.8617Z" fill="#F8F8F8"/>
</g>
<defs>
<clipPath id="clip0_310_4430">
<rect width="70" height="70" fill="white" transform="translate(85)"/>
</clipPath>
</defs>
</svg>
